solid "Hollow_Square"; Produced by Art of Illusion 2.4, Thu Jul 31 16:25:50 PDT 2008
facet normal  1 0 0
  outer loop
    vertex  11.6 10.683787878788 7.802098074869
    vertex  11.6 0 7.802098074869
    vertex  11.6 5.341893939394 3.902428002659
  endloop
endfacet
facet normal  1 0 0
  outer loop
    vertex  11.6 0 7.802098074869
    vertex  11.6 0 0.00275793045
    vertex  11.6 5.341893939394 3.902428002659
  endloop
endfacet
facet normal  1 0 0
  outer loop
    vertex  11.6 0 0.00275793045
    vertex  11.6 10.683787878788 0.00275793045
    vertex  11.6 5.341893939394 3.902428002659
  endloop
endfacet
facet normal  1 0 0
  outer loop
    vertex  11.6 10.683787878788 0.00275793045
    vertex  11.6 10.683787878788 7.802098074869
    vertex  11.6 5.341893939394 3.902428002659
  endloop
endfacet
facet normal  0 1 0
  outer loop
    vertex  0 10.683787878788 7.802098074869
    vertex  11.6 10.683787878788 7.802098074869
    vertex  5.8 10.683787878788 3.902428002659
  endloop
endfacet
facet normal  0 1 0
  outer loop
    vertex  11.6 10.683787878788 7.802098074869
    vertex  11.6 10.683787878788 0.00275793045
    vertex  5.8 10.683787878788 3.902428002659
  endloop
endfacet
facet normal  0 1 0
  outer loop
    vertex  11.6 10.683787878788 0.00275793045
    vertex  0 10.683787878788 0.00275793045
    vertex  5.8 10.683787878788 3.902428002659
  endloop
endfacet
facet normal  0 1 0
  outer loop
    vertex  0 10.683787878788 0.00275793045
    vertex  0 10.683787878788 7.802098074869
    vertex  5.8 10.683787878788 3.902428002659
  endloop
endfacet
facet normal  -1 0 0
  outer loop
    vertex  0 0 7.802098074869
    vertex  0 10.683787878788 7.802098074869
    vertex  0 5.341893939394 3.902428002659
  endloop
endfacet
facet normal  -1 0 0
  outer loop
    vertex  0 10.683787878788 7.802098074869
    vertex  0 10.683787878788 0.00275793045
    vertex  0 5.341893939394 3.902428002659
  endloop
endfacet
facet normal  -1 0 0
  outer loop
    vertex  0 10.683787878788 0.00275793045
    vertex  0 0 0.00275793045
    vertex  0 5.341893939394 3.902428002659
  endloop
endfacet
facet normal  -1 0 0
  outer loop
    vertex  0 0 0.00275793045
    vertex  0 0 7.802098074869
    vertex  0 5.341893939394 3.902428002659
  endloop
endfacet
facet normal  0 -1 0
  outer loop
    vertex  11.6 0 7.802098074869
    vertex  0 0 7.802098074869
    vertex  5.8 0 3.902428002659
  endloop
endfacet
facet normal  0 -1 0
  outer loop
    vertex  0 0 7.802098074869
    vertex  0 0 0.00275793045
    vertex  5.8 0 3.902428002659
  endloop
endfacet
facet normal  0 -1 0
  outer loop
    vertex  0 0 0.00275793045
    vertex  11.6 0 0.00275793045
    vertex  5.8 0 3.902428002659
  endloop
endfacet
facet normal  0 -1 0
  outer loop
    vertex  11.6 0 0.00275793045
    vertex  11.6 0 7.802098074869
    vertex  5.8 0 3.902428002659
  endloop
endfacet
facet normal  0 0 1
  outer loop
    vertex  8.055555555556 7.419297138047 7.802098074869
    vertex  11.6 10.683787878788 7.802098074869
    vertex  4.258344353346 7.419297138047 7.802098074869
  endloop
endfacet
facet normal  0 0 1
  outer loop
    vertex  11.6 10.683787878788 7.802098074869
    vertex  0 10.683787878788 7.802098074869
    vertex  4.258344353346 7.419297138047 7.802098074869
  endloop
endfacet
facet normal  0 0 1
  outer loop
    vertex  11.6 10.683787878788 7.802098074869
    vertex  8.510552763819 7.200623117136 7.802098074869
    vertex  8.510552763819 3.483164761652 7.802098074869
  endloop
endfacet
facet normal  0 0 1
  outer loop
    vertex  11.6 10.683787878788 7.802098074869
    vertex  8.510552763819 3.483164761652 7.802098074869
    vertex  11.6 0 7.802098074869
  endloop
endfacet
facet normal  0 0 1
  outer loop
    vertex  4.022110552764 3.704428962997 7.802098074869
    vertex  0 0 7.802098074869
    vertex  4.022110552764 3.483164761652 7.802098074869
  endloop
endfacet
facet normal  0 0 1
  outer loop
    vertex  0 0 7.802098074869
    vertex  4.022110552764 3.704428962997 7.802098074869
    vertex  4.022110552764 6.979358915791 7.802098074869
  endloop
endfacet
facet normal  0 0 1
  outer loop
    vertex  0 0 7.802098074869
    vertex  4.022110552764 6.979358915791 7.802098074869
    vertex  0 10.683787878788 7.802098074869
  endloop
endfacet
facet normal  0 0 -1
  outer loop
    vertex  11.6 10.683787878788 0.00275793045
    vertex  8.055555555556 7.419297138047 0.00275793045
    vertex  4.376461253637 7.419297138047 0.00275793045
  endloop
endfacet
facet normal  0 0 -1
  outer loop
    vertex  0 10.683787878788 0.00275793045
    vertex  11.6 10.683787878788 0.00275793045
    vertex  4.376461253637 7.419297138047 0.00275793045
  endloop
endfacet
facet normal  0 0 -1
  outer loop
    vertex  11.6 0 0.00275793045
    vertex  8.510552763819 3.264490740741 0.00275793045
    vertex  8.510552763819 3.592501772107 0.00275793045
  endloop
endfacet
facet normal  0 0 -1
  outer loop
    vertex  11.6 0 0.00275793045
    vertex  8.510552763819 3.592501772107 0.00275793045
    vertex  11.6 10.683787878788 0.00275793045
  endloop
endfacet
facet normal  0 0 -1
  outer loop
    vertex  0 0 0.00275793045
    vertex  4.022110552764 3.704428962997 0.00275793045
    vertex  4.022110552764 3.592501772107 0.00275793045
  endloop
endfacet
facet normal  0 0 -1
  outer loop
    vertex  0 10.683787878788 0.00275793045
    vertex  4.022110552764 6.979358915791 0.00275793045
    vertex  4.022110552764 3.704428962997 0.00275793045
  endloop
endfacet
facet normal  0 0 -1
  outer loop
    vertex  0 10.683787878788 0.00275793045
    vertex  4.022110552764 3.704428962997 0.00275793045
    vertex  0 0 0.00275793045
  endloop
endfacet
facet normal  0 0 1
  outer loop
    vertex  4.258344353346 7.419297138047 7.802098074869
    vertex  0 10.683787878788 7.802098074869
    vertex  4.022110552764 7.419297138047 7.802098074869
  endloop
endfacet
facet normal  0 0 1
  outer loop
    vertex  8.510552763819 7.200623117136 7.802098074869
    vertex  11.6 10.683787878788 7.802098074869
    vertex  8.510552763819 7.419297138047 7.802098074869
  endloop
endfacet
facet normal  0 0 1
  outer loop
    vertex  4.022110552764 3.483164761652 7.802098074869
    vertex  0 0 7.802098074869
    vertex  4.022110552764 3.264490740741 7.802098074869
  endloop
endfacet
facet normal  0 0 1
  outer loop
    vertex  0 0 7.802098074869
    vertex  11.6 0 7.802098074869
    vertex  4.022110552764 3.264490740741 7.802098074869
  endloop
endfacet
facet normal  0 0 1
  outer loop
    vertex  4.497852491155 3.264490740741 7.802098074869
    vertex  11.6 0 7.802098074869
    vertex  8.055555555556 3.264490740741 7.802098074869
  endloop
endfacet
facet normal  0 0 -1
  outer loop
    vertex  11.6 0 0.00275793045
    vertex  8.055555555556 3.264490740741 0.00275793045
    vertex  8.156202062946 3.264490740741 0.00275793045
  endloop
endfacet
facet normal  -0 -0 -1
  outer loop
    vertex  8.510552763819 3.264490740741 0.00275793045
    vertex  11.6 0 0.00275793045
    vertex  8.156202062946 3.264490740741 0.00275793045
  endloop
endfacet
facet normal  0 0 -1
  outer loop
    vertex  11.6 10.683787878788 0.00275793045
    vertex  8.510552763819 3.592501772107 0.00275793045
    vertex  8.510552763819 7.091286106681 0.00275793045
  endloop
endfacet
facet normal  -0 -0 -1
  outer loop
    vertex  8.055555555556 3.264490740741 0.00275793045
    vertex  11.6 0 0.00275793045
    vertex  4.714004806642 3.264490740741 0.00275793045
  endloop
endfacet
facet normal  0 0 -1
  outer loop
    vertex  11.6 0 0.00275793045
    vertex  0 0 0.00275793045
    vertex  4.022110552764 3.264490740741 0.00275793045
  endloop
endfacet
facet normal  0 0 1
  outer loop
    vertex  0 10.683787878788 7.802098074869
    vertex  4.022110552764 6.979358915791 7.802098074869
    vertex  4.022110552764 7.200623117136 7.802098074869
  endloop
endfacet
facet normal  0 0 1
  outer loop
    vertex  4.022110552764 7.419297138047 7.802098074869
    vertex  0 10.683787878788 7.802098074869
    vertex  4.022110552764 7.200623117136 7.802098074869
  endloop
endfacet
facet normal  0 0 1
  outer loop
    vertex  11.6 10.683787878788 7.802098074869
    vertex  8.055555555556 7.419297138047 7.802098074869
    vertex  8.274318963237 7.419297138047 7.802098074869
  endloop
endfacet
facet normal  0 0 1
  outer loop
    vertex  8.510552763819 7.419297138047 7.802098074869
    vertex  11.6 10.683787878788 7.802098074869
    vertex  8.274318963237 7.419297138047 7.802098074869
  endloop
endfacet
facet normal  0 0 1
  outer loop
    vertex  8.055555555556 3.264490740741 7.802098074869
    vertex  11.6 0 7.802098074869
    vertex  8.274318963237 3.264490740741 7.802098074869
  endloop
endfacet
facet normal  0 0 1
  outer loop
    vertex  11.6 0 7.802098074869
    vertex  8.510552763819 3.264490740741 7.802098074869
    vertex  8.274318963237 3.264490740741 7.802098074869
  endloop
endfacet
facet normal  0 0 1
  outer loop
    vertex  11.6 0 7.802098074869
    vertex  4.497852491155 3.264490740741 7.802098074869
    vertex  4.258344353346 3.264490740741 7.802098074869
  endloop
endfacet
facet normal  0 0 1
  outer loop
    vertex  4.022110552764 3.264490740741 7.802098074869
    vertex  11.6 0 7.802098074869
    vertex  4.258344353346 3.264490740741 7.802098074869
  endloop
endfacet
facet normal  0 0 -1
  outer loop
    vertex  0 10.683787878788 0.00275793045
    vertex  4.022110552764 7.419297138047 0.00275793045
    vertex  4.022110552764 7.091286106681 0.00275793045
  endloop
endfacet
facet normal  0 0 -1
  outer loop
    vertex  11.6 0 0.00275793045
    vertex  4.022110552764 3.264490740741 0.00275793045
    vertex  4.376461253637 3.264490740741 0.00275793045
  endloop
endfacet
facet normal  0 0 -1
  outer loop
    vertex  4.022110552764 6.979358915791 0.00275793045
    vertex  0 10.683787878788 0.00275793045
    vertex  4.022110552764 7.091286106681 0.00275793045
  endloop
endfacet
facet normal  0 0 -1
  outer loop
    vertex  11.6 10.683787878788 0.00275793045
    vertex  8.510552763819 7.419297138047 0.00275793045
    vertex  8.156202062946 7.419297138047 0.00275793045
  endloop
endfacet
facet normal  -0 -0 -1
  outer loop
    vertex  4.714004806642 3.264490740741 0.00275793045
    vertex  11.6 0 0.00275793045
    vertex  4.376461253637 3.264490740741 0.00275793045
  endloop
endfacet
facet normal  0 0 -1
  outer loop
    vertex  8.055555555556 7.419297138047 0.00275793045
    vertex  11.6 10.683787878788 0.00275793045
    vertex  8.156202062946 7.419297138047 0.00275793045
  endloop
endfacet
facet normal  0 0 1
  outer loop
    vertex  8.510552763819 3.483164761652 7.802098074869
    vertex  8.510552763819 3.283234228247 7.802098074869
    vertex  11.6 0 7.802098074869
  endloop
endfacet
facet normal  0 0 1
  outer loop
    vertex  8.510552763819 3.283234228247 7.802098074869
    vertex  8.510552763819 3.264490740741 7.802098074869
    vertex  11.6 0 7.802098074869
  endloop
endfacet
facet normal  0 0 -1
  outer loop
    vertex  4.376461253637 7.419297138047 0.00275793045
    vertex  4.041796702812 7.419297138047 0.00275793045
    vertex  0 10.683787878788 0.00275793045
  endloop
endfacet
facet normal  0 0 -1
  outer loop
    vertex  4.041796702812 7.419297138047 0.00275793045
    vertex  4.022110552764 7.419297138047 0.00275793045
    vertex  0 10.683787878788 0.00275793045
  endloop
endfacet
facet normal  0 0 -1
  outer loop
    vertex  4.022110552764 3.592501772107 0.00275793045
    vertex  4.022110552764 3.282713575817 0.00275793045
    vertex  0 0 0.00275793045
  endloop
endfacet
facet normal  0 0 -1
  outer loop
    vertex  4.022110552764 3.282713575817 0.00275793045
    vertex  4.022110552764 3.264490740741 0.00275793045
    vertex  0 0 0.00275793045
  endloop
endfacet
facet normal  0 0 -1
  outer loop
    vertex  8.510552763819 7.091286106681 0.00275793045
    vertex  8.510552763819 7.401074302971 0.00275793045
    vertex  11.6 10.683787878788 0.00275793045
  endloop
endfacet
facet normal  0 0 -1
  outer loop
    vertex  8.510552763819 7.401074302971 0.00275793045
    vertex  8.510552763819 7.419297138047 0.00275793045
    vertex  11.6 10.683787878788 0.00275793045
  endloop
endfacet
facet normal  -1 0 0
  outer loop
    vertex  8.510552763819 5.341893939394 3.784256182289
    vertex  8.510552763819 3.483164761652 7.802098074869
    vertex  8.510552763819 7.200623117136 7.802098074869
  endloop
endfacet
facet normal  -1 0 0
  outer loop
    vertex  8.510552763819 5.341893939394 3.784256182289
    vertex  8.510552763819 7.091286106681 0.00275793045
    vertex  8.510552763819 3.592501772107 0.00275793045
  endloop
endfacet
facet normal  0 -1 0
  outer loop
    vertex  4.258344353346 7.419297138047 7.802098074869
    vertex  6.266331658291 7.419297138047 3.784256182289
    vertex  8.055555555556 7.419297138047 7.802098074869
  endloop
endfacet
facet normal  0 -1 0
  outer loop
    vertex  8.274318963237 7.419297138047 7.802098074869
    vertex  6.266331658291 7.419297138047 3.784256182289
    vertex  8.510552763819 7.419297138047 7.802098074869
  endloop
endfacet
facet normal  0 -1 0
  outer loop
    vertex  6.266331658291 7.419297138047 3.784256182289
    vertex  4.376461253637 7.419297138047 0.00275793045
    vertex  8.055555555556 7.419297138047 0.00275793045
  endloop
endfacet
facet normal  1 0 0
  outer loop
    vertex  4.022110552764 3.483164761652 7.802098074869
    vertex  4.022110552764 5.341893939394 3.784256182289
    vertex  4.022110552764 3.704428962997 7.802098074869
  endloop
endfacet
facet normal  1 0 0
  outer loop
    vertex  4.022110552764 7.200623117136 7.802098074869
    vertex  4.022110552764 5.341893939394 3.784256182289
    vertex  4.022110552764 7.419297138047 7.802098074869
  endloop
endfacet
facet normal  1 0 0
  outer loop
    vertex  4.022110552764 5.341893939394 3.784256182289
    vertex  4.022110552764 3.592501772107 0.00275793045
    vertex  4.022110552764 3.704428962997 0.00275793045
  endloop
endfacet
facet normal  0 1 0
  outer loop
    vertex  8.055555555556 3.264490740741 7.802098074869
    vertex  6.266331658291 3.264490740741 3.784256182289
    vertex  4.497852491155 3.264490740741 7.802098074869
  endloop
endfacet
facet normal  0 1 0
  outer loop
    vertex  4.258344353346 3.264490740741 7.802098074869
    vertex  6.266331658291 3.264490740741 3.784256182289
    vertex  4.022110552764 3.264490740741 7.802098074869
  endloop
endfacet
facet normal  0 1 0
  outer loop
    vertex  6.266331658291 3.264490740741 3.784256182289
    vertex  8.156202062946 3.264490740741 0.00275793045
    vertex  8.055555555556 3.264490740741 0.00275793045
  endloop
endfacet
facet normal  0 1 0
  outer loop
    vertex  8.156202062946 3.264490740741 0.00275793045
    vertex  6.266331658291 3.264490740741 3.784256182289
    vertex  8.510552763819 3.264490740741 0.00275793045
  endloop
endfacet
facet normal  -1 -0 -0
  outer loop
    vertex  8.510552763819 3.283234228247 7.802098074869
    vertex  8.510552763819 3.592501772107 0.00275793045
    vertex  8.510552763819 3.264490740741 7.802098074869
  endloop
endfacet
facet normal  -1 0 0
  outer loop
    vertex  8.510552763819 3.264490740741 7.802098074869
    vertex  8.510552763819 3.592501772107 0.00275793045
    vertex  8.510552763819 3.264490740741 0.00275793045
  endloop
endfacet
facet normal  -1 -0 -0
  outer loop
    vertex  8.510552763819 3.483164761652 7.802098074869
    vertex  8.510552763819 5.341893939394 3.784256182289
    vertex  8.510552763819 3.283234228247 7.802098074869
  endloop
endfacet
facet normal  -1 0 0
  outer loop
    vertex  8.510552763819 3.283234228247 7.802098074869
    vertex  8.510552763819 5.341893939394 3.784256182289
    vertex  8.510552763819 3.592501772107 0.00275793045
  endloop
endfacet
facet normal  -1 0 0
  outer loop
    vertex  8.510552763819 7.401074302971 0.00275793045
    vertex  8.510552763819 7.200623117136 7.802098074869
    vertex  8.510552763819 7.419297138047 0.00275793045
  endloop
endfacet
facet normal  -1 0 0
  outer loop
    vertex  8.510552763819 7.419297138047 0.00275793045
    vertex  8.510552763819 7.200623117136 7.802098074869
    vertex  8.510552763819 7.419297138047 7.802098074869
  endloop
endfacet
facet normal  -1 0 0
  outer loop
    vertex  8.510552763819 7.091286106681 0.00275793045
    vertex  8.510552763819 5.341893939394 3.784256182289
    vertex  8.510552763819 7.401074302971 0.00275793045
  endloop
endfacet
facet normal  -1 0 0
  outer loop
    vertex  8.510552763819 7.401074302971 0.00275793045
    vertex  8.510552763819 5.341893939394 3.784256182289
    vertex  8.510552763819 7.200623117136 7.802098074869
  endloop
endfacet
facet normal  0 -1 0
  outer loop
    vertex  6.266331658291 7.419297138047 3.784256182289
    vertex  8.274318963237 7.419297138047 7.802098074869
    vertex  8.055555555556 7.419297138047 7.802098074869
  endloop
endfacet
facet normal  0 -1 0
  outer loop
    vertex  8.510552763819 7.419297138047 0.00275793045
    vertex  8.510552763819 7.419297138047 7.802098074869
    vertex  8.156202062946 7.419297138047 0.00275793045
  endloop
endfacet
facet normal  0 -1 0
  outer loop
    vertex  8.156202062946 7.419297138047 0.00275793045
    vertex  8.510552763819 7.419297138047 7.802098074869
    vertex  6.266331658291 7.419297138047 3.784256182289
  endloop
endfacet
facet normal  0 -1 0
  outer loop
    vertex  8.156202062946 7.419297138047 0.00275793045
    vertex  6.266331658291 7.419297138047 3.784256182289
    vertex  8.055555555556 7.419297138047 0.00275793045
  endloop
endfacet
facet normal  0 -1 0
  outer loop
    vertex  4.041796702812 7.419297138047 0.00275793045
    vertex  4.258344353346 7.419297138047 7.802098074869
    vertex  4.022110552764 7.419297138047 0.00275793045
  endloop
endfacet
facet normal  0 -1 0
  outer loop
    vertex  4.022110552764 7.419297138047 0.00275793045
    vertex  4.258344353346 7.419297138047 7.802098074869
    vertex  4.022110552764 7.419297138047 7.802098074869
  endloop
endfacet
facet normal  0 -1 0
  outer loop
    vertex  4.376461253637 7.419297138047 0.00275793045
    vertex  6.266331658291 7.419297138047 3.784256182289
    vertex  4.041796702812 7.419297138047 0.00275793045
  endloop
endfacet
facet normal  0 -1 0
  outer loop
    vertex  4.041796702812 7.419297138047 0.00275793045
    vertex  6.266331658291 7.419297138047 3.784256182289
    vertex  4.258344353346 7.419297138047 7.802098074869
  endloop
endfacet
facet normal  1 0 0
  outer loop
    vertex  4.022110552764 3.704428962997 7.802098074869
    vertex  4.022110552764 5.341893939394 3.784256182289
    vertex  4.022110552764 6.979358915791 7.802098074869
  endloop
endfacet
facet normal  1 0 0
  outer loop
    vertex  4.022110552764 7.419297138047 0.00275793045
    vertex  4.022110552764 7.419297138047 7.802098074869
    vertex  4.022110552764 7.091286106681 0.00275793045
  endloop
endfacet
facet normal  1 0 0
  outer loop
    vertex  4.022110552764 7.091286106681 0.00275793045
    vertex  4.022110552764 7.419297138047 7.802098074869
    vertex  4.022110552764 5.341893939394 3.784256182289
  endloop
endfacet
facet normal  1 0 0
  outer loop
    vertex  4.022110552764 5.341893939394 3.784256182289
    vertex  4.022110552764 3.704428962997 0.00275793045
    vertex  4.022110552764 6.979358915791 0.00275793045
  endloop
endfacet
facet normal  1 0 0
  outer loop
    vertex  4.022110552764 3.282713575817 0.00275793045
    vertex  4.022110552764 3.483164761652 7.802098074869
    vertex  4.022110552764 3.264490740741 0.00275793045
  endloop
endfacet
facet normal  1 0 0
  outer loop
    vertex  4.022110552764 3.264490740741 0.00275793045
    vertex  4.022110552764 3.483164761652 7.802098074869
    vertex  4.022110552764 3.264490740741 7.802098074869
  endloop
endfacet
facet normal  1 0 0
  outer loop
    vertex  4.022110552764 3.592501772107 0.00275793045
    vertex  4.022110552764 5.341893939394 3.784256182289
    vertex  4.022110552764 3.282713575817 0.00275793045
  endloop
endfacet
facet normal  1 0 0
  outer loop
    vertex  4.022110552764 3.282713575817 0.00275793045
    vertex  4.022110552764 5.341893939394 3.784256182289
    vertex  4.022110552764 3.483164761652 7.802098074869
  endloop
endfacet
facet normal  0 1 0
  outer loop
    vertex  6.266331658291 3.264490740741 3.784256182289
    vertex  4.258344353346 3.264490740741 7.802098074869
    vertex  4.497852491155 3.264490740741 7.802098074869
  endloop
endfacet
facet normal  0 1 0
  outer loop
    vertex  8.274318963237 3.264490740741 7.802098074869
    vertex  6.266331658291 3.264490740741 3.784256182289
    vertex  8.055555555556 3.264490740741 7.802098074869
  endloop
endfacet
facet normal  0 1 0
  outer loop
    vertex  4.022110552764 3.264490740741 0.00275793045
    vertex  4.022110552764 3.264490740741 7.802098074869
    vertex  4.376461253637 3.264490740741 0.00275793045
  endloop
endfacet
facet normal  0 1 0
  outer loop
    vertex  4.376461253637 3.264490740741 0.00275793045
    vertex  4.022110552764 3.264490740741 7.802098074869
    vertex  6.266331658291 3.264490740741 3.784256182289
  endloop
endfacet
facet normal  0 1 0
  outer loop
    vertex  6.266331658291 3.264490740741 3.784256182289
    vertex  8.055555555556 3.264490740741 0.00275793045
    vertex  4.714004806642 3.264490740741 0.00275793045
  endloop
endfacet
facet normal  0 1 0
  outer loop
    vertex  8.510552763819 3.264490740741 7.802098074869
    vertex  8.510552763819 3.264490740741 0.00275793045
    vertex  8.274318963237 3.264490740741 7.802098074869
  endloop
endfacet
facet normal  0 1 0
  outer loop
    vertex  8.274318963237 3.264490740741 7.802098074869
    vertex  8.510552763819 3.264490740741 0.00275793045
    vertex  6.266331658291 3.264490740741 3.784256182289
  endloop
endfacet
facet normal  1 0 0
  outer loop
    vertex  4.022110552764 5.341893939394 3.784256182289
    vertex  4.022110552764 7.200623117136 7.802098074869
    vertex  4.022110552764 6.979358915791 7.802098074869
  endloop
endfacet
facet normal  1 0 0
  outer loop
    vertex  4.022110552764 7.091286106681 0.00275793045
    vertex  4.022110552764 5.341893939394 3.784256182289
    vertex  4.022110552764 6.979358915791 0.00275793045
  endloop
endfacet
facet normal  0 1 0
  outer loop
    vertex  4.376461253637 3.264490740741 0.00275793045
    vertex  6.266331658291 3.264490740741 3.784256182289
    vertex  4.714004806642 3.264490740741 0.00275793045
  endloop
endfacet
endsolid
