<?xml version="1.0"?>
<!DOCTYPE svg PUBLIC "-//W3C//DTD SVG 1.1//EN" "http://www.w3.org/Graphics/SVG/1.1/DTD/svg11.dtd">
<svg xmlns="http://www.w3.org/2000/svg" version="1.1" height="3155.0" width="356">
  <g style="fill-opacity:1.0; stroke:black; stroke-width:1;">
    <text x="20" y="72" font-size="24" style="fill-opacity:1.0; stroke:black; stroke-width:0;">
      Layer Index: 0
    </text>
    <line x1="96" y1="96" x2="156" y2="96" stroke="red" />
    <line x1="156" y1="96" x2="165" y2="105" stroke="red" />
    <line x1="165" y1="105" x2="165" y2="220" stroke="red" />
    <line x1="165" y1="220" x2="156" y2="229" stroke="red" />
    <line x1="156" y1="229" x2="29" y2="229" stroke="red" />
    <line x1="29" y1="229" x2="20" y2="220" stroke="red" />
    <line x1="20" y1="220" x2="20" y2="105" stroke="red" />
    <line x1="20" y1="105" x2="29" y2="96" stroke="red" />
    <line x1="29" y1="96" x2="96" y2="96" stroke="red" />
    <line x1="96" y1="96" x2="96" y2="130" stroke="gray" />
    <line x1="96" y1="130" x2="64" y2="130" stroke="orange" />
    <line x1="64" y1="130" x2="64" y2="195" stroke="orange" />
    <line x1="64" y1="195" x2="134" y2="195" stroke="orange" />
    <line x1="134" y1="195" x2="134" y2="130" stroke="orange" />
    <line x1="134" y1="130" x2="96" y2="130" stroke="orange" />
    <line x1="96" y1="130" x2="51" y2="106" stroke="gray" />
    <line x1="51" y1="106" x2="30" y2="127" stroke="yellow" />
    <line x1="30" y1="127" x2="30" y2="113" stroke="yellow" />
    <line x1="30" y1="113" x2="37" y2="106" stroke="yellow" />
    <line x1="37" y1="106" x2="59" y2="125" stroke="gray" />
    <line x1="59" y1="125" x2="139" y2="125" stroke="gray" />
    <line x1="139" y1="125" x2="139" y2="193" stroke="gray" />
    <line x1="139" y1="193" x2="143" y2="197" stroke="gray" />
    <line x1="143" y1="197" x2="156" y2="184" stroke="green" />
    <line x1="156" y1="184" x2="143" y2="182" stroke="green" />
    <line x1="143" y1="182" x2="156" y2="170" stroke="green" />
    <line x1="156" y1="170" x2="143" y2="168" stroke="green" />
    <line x1="143" y1="168" x2="156" y2="156" stroke="green" />
    <line x1="156" y1="156" x2="143" y2="154" stroke="green" />
    <line x1="143" y1="154" x2="156" y2="142" stroke="green" />
    <line x1="156" y1="142" x2="143" y2="140" stroke="green" />
    <line x1="143" y1="140" x2="156" y2="128" stroke="green" />
    <line x1="156" y1="128" x2="143" y2="126" stroke="green" />
    <line x1="143" y1="126" x2="156" y2="114" stroke="green" />
    <line x1="156" y1="114" x2="150" y2="106" stroke="green" />
    <line x1="150" y1="106" x2="135" y2="120" stroke="green" />
    <line x1="135" y1="120" x2="121" y2="120" stroke="green" />
    <line x1="121" y1="120" x2="136" y2="106" stroke="green" />
    <line x1="136" y1="106" x2="121" y2="106" stroke="green" />
    <line x1="121" y1="106" x2="107" y2="120" stroke="green" />
    <line x1="107" y1="120" x2="93" y2="120" stroke="green" />
    <line x1="93" y1="120" x2="107" y2="106" stroke="green" />
    <line x1="107" y1="106" x2="93" y2="106" stroke="green" />
    <line x1="93" y1="106" x2="78" y2="120" stroke="green" />
    <line x1="78" y1="120" x2="64" y2="120" stroke="green" />
    <line x1="64" y1="120" x2="79" y2="106" stroke="green" />
    <line x1="79" y1="106" x2="65" y2="106" stroke="green" />
    <line x1="65" y1="106" x2="30" y2="141" stroke="green" />
    <line x1="30" y1="141" x2="30" y2="155" stroke="green" />
    <line x1="30" y1="155" x2="54" y2="130" stroke="green" />
    <line x1="54" y1="130" x2="54" y2="144" stroke="green" />
    <line x1="54" y1="144" x2="30" y2="169" stroke="green" />
    <line x1="30" y1="169" x2="30" y2="183" stroke="green" />
    <line x1="30" y1="183" x2="54" y2="158" stroke="green" />
    <line x1="54" y1="158" x2="54" y2="173" stroke="green" />
    <line x1="54" y1="173" x2="30" y2="197" stroke="green" />
    <line x1="30" y1="197" x2="30" y2="212" stroke="green" />
    <line x1="30" y1="212" x2="54" y2="187" stroke="green" />
    <line x1="54" y1="187" x2="54" y2="201" stroke="green" />
    <line x1="54" y1="201" x2="36" y2="220" stroke="green" />
    <line x1="36" y1="220" x2="50" y2="220" stroke="green" />
    <line x1="50" y1="220" x2="64" y2="205" stroke="green" />
    <line x1="64" y1="205" x2="79" y2="205" stroke="green" />
    <line x1="79" y1="205" x2="64" y2="220" stroke="green" />
    <line x1="64" y1="220" x2="78" y2="220" stroke="green" />
    <line x1="78" y1="220" x2="93" y2="205" stroke="green" />
    <line x1="93" y1="205" x2="107" y2="205" stroke="green" />
    <line x1="107" y1="205" x2="92" y2="220" stroke="green" />
    <line x1="92" y1="220" x2="106" y2="220" stroke="green" />
    <line x1="106" y1="220" x2="121" y2="205" stroke="green" />
    <line x1="121" y1="205" x2="135" y2="205" stroke="green" />
    <line x1="135" y1="205" x2="120" y2="220" stroke="green" />
    <line x1="120" y1="220" x2="135" y2="220" stroke="green" />
    <line x1="135" y1="220" x2="156" y2="198" stroke="green" />
    <line x1="156" y1="198" x2="156" y2="213" stroke="green" />
    <line x1="156" y1="213" x2="149" y2="220" stroke="green" />
    <text x="20" y="397.012048193" font-size="24" style="fill-opacity:1.0; stroke:black; stroke-width:0;">
      Layer Index: 1
    </text>
    <line x1="149" y1="545" x2="149" y2="554" stroke="gray" />
    <line x1="149" y1="554" x2="29" y2="554" stroke="red" />
    <line x1="29" y1="554" x2="20" y2="545" stroke="red" />
    <line x1="20" y1="545" x2="20" y2="430" stroke="red" />
    <line x1="20" y1="430" x2="29" y2="421" stroke="red" />
    <line x1="29" y1="421" x2="156" y2="421" stroke="red" />
    <line x1="156" y1="421" x2="165" y2="430" stroke="red" />
    <line x1="165" y1="430" x2="165" y2="545" stroke="red" />
    <line x1="165" y1="545" x2="156" y2="554" stroke="red" />
    <line x1="156" y1="554" x2="149" y2="554" stroke="red" />
    <line x1="149" y1="554" x2="73" y2="525" stroke="gray" />
    <line x1="73" y1="525" x2="59" y2="525" stroke="gray" />
    <line x1="59" y1="525" x2="59" y2="521" stroke="gray" />
    <line x1="59" y1="521" x2="64" y2="520" stroke="gray" />
    <line x1="64" y1="520" x2="134" y2="520" stroke="orange" />
    <line x1="134" y1="520" x2="134" y2="455" stroke="orange" />
    <line x1="134" y1="455" x2="64" y2="455" stroke="orange" />
    <line x1="64" y1="455" x2="64" y2="520" stroke="orange" />
    <line x1="64" y1="520" x2="59" y2="524" stroke="gray" />
    <line x1="59" y1="524" x2="59" y2="525" stroke="gray" />
    <line x1="59" y1="525" x2="60" y2="525" stroke="gray" />
    <line x1="60" y1="525" x2="64" y2="530" stroke="gray" />
    <line x1="64" y1="530" x2="144" y2="530" stroke="yellow" />
    <line x1="144" y1="530" x2="144" y2="445" stroke="yellow" />
    <line x1="144" y1="445" x2="54" y2="445" stroke="yellow" />
    <line x1="54" y1="445" x2="54" y2="530" stroke="yellow" />
    <line x1="54" y1="530" x2="64" y2="530" stroke="yellow" />
    <line x1="64" y1="530" x2="64" y2="544" stroke="gray" />
    <line x1="64" y1="544" x2="33" y2="544" stroke="green" />
    <line x1="33" y1="544" x2="30" y2="541" stroke="green" />
    <line x1="30" y1="541" x2="30" y2="434" stroke="green" />
    <line x1="30" y1="434" x2="33" y2="431" stroke="green" />
    <line x1="33" y1="431" x2="152" y2="431" stroke="green" />
    <line x1="152" y1="431" x2="155" y2="434" stroke="green" />
    <line x1="155" y1="434" x2="155" y2="541" stroke="green" />
    <line x1="155" y1="541" x2="152" y2="544" stroke="green" />
    <line x1="152" y1="544" x2="64" y2="544" stroke="green" />
    <line x1="64" y1="544" x2="40" y2="535" stroke="gray" />
    <line x1="40" y1="535" x2="39" y2="535" stroke="blue" />
    <line x1="39" y1="535" x2="44" y2="526" stroke="blue" />
    <line x1="44" y1="526" x2="40" y2="521" stroke="blue" />
    <line x1="40" y1="521" x2="44" y2="512" stroke="blue" />
    <line x1="44" y1="512" x2="40" y2="507" stroke="blue" />
    <line x1="40" y1="507" x2="44" y2="498" stroke="blue" />
    <line x1="44" y1="498" x2="40" y2="493" stroke="blue" />
    <line x1="40" y1="493" x2="44" y2="483" stroke="blue" />
    <line x1="44" y1="483" x2="40" y2="479" stroke="blue" />
    <line x1="40" y1="479" x2="44" y2="469" stroke="blue" />
    <line x1="44" y1="469" x2="40" y2="464" stroke="blue" />
    <line x1="40" y1="464" x2="44" y2="455" stroke="blue" />
    <line x1="44" y1="455" x2="40" y2="450" stroke="blue" />
    <line x1="40" y1="450" x2="44" y2="441" stroke="blue" />
    <line x1="44" y1="441" x2="44" y2="441" stroke="blue" />
    <text x="20" y="722.024096386" font-size="24" style="fill-opacity:1.0; stroke:black; stroke-width:0;">
      Layer Index: 2
    </text>
    <line x1="44" y1="766" x2="44" y2="746" stroke="gray" />
    <line x1="44" y1="746" x2="156" y2="746" stroke="red" />
    <line x1="156" y1="746" x2="165" y2="755" stroke="red" />
    <line x1="165" y1="755" x2="165" y2="870" stroke="red" />
    <line x1="165" y1="870" x2="156" y2="879" stroke="red" />
    <line x1="156" y1="879" x2="29" y2="879" stroke="red" />
    <line x1="29" y1="879" x2="20" y2="870" stroke="red" />
    <line x1="20" y1="870" x2="20" y2="755" stroke="red" />
    <line x1="20" y1="755" x2="29" y2="746" stroke="red" />
    <line x1="29" y1="746" x2="44" y2="746" stroke="red" />
    <line x1="44" y1="746" x2="64" y2="780" stroke="gray" />
    <line x1="64" y1="780" x2="64" y2="845" stroke="orange" />
    <line x1="64" y1="845" x2="134" y2="845" stroke="orange" />
    <line x1="134" y1="845" x2="134" y2="780" stroke="orange" />
    <line x1="134" y1="780" x2="64" y2="780" stroke="orange" />
    <line x1="64" y1="780" x2="51" y2="756" stroke="gray" />
    <line x1="51" y1="756" x2="30" y2="777" stroke="yellow" />
    <line x1="30" y1="777" x2="30" y2="763" stroke="yellow" />
    <line x1="30" y1="763" x2="37" y2="756" stroke="yellow" />
    <line x1="37" y1="756" x2="59" y2="775" stroke="gray" />
    <line x1="59" y1="775" x2="139" y2="775" stroke="gray" />
    <line x1="139" y1="775" x2="139" y2="843" stroke="gray" />
    <line x1="139" y1="843" x2="143" y2="847" stroke="gray" />
    <line x1="143" y1="847" x2="156" y2="834" stroke="green" />
    <line x1="156" y1="834" x2="143" y2="832" stroke="green" />
    <line x1="143" y1="832" x2="156" y2="820" stroke="green" />
    <line x1="156" y1="820" x2="143" y2="818" stroke="green" />
    <line x1="143" y1="818" x2="156" y2="806" stroke="green" />
    <line x1="156" y1="806" x2="143" y2="804" stroke="green" />
    <line x1="143" y1="804" x2="156" y2="792" stroke="green" />
    <line x1="156" y1="792" x2="143" y2="790" stroke="green" />
    <line x1="143" y1="790" x2="156" y2="778" stroke="green" />
    <line x1="156" y1="778" x2="143" y2="776" stroke="green" />
    <line x1="143" y1="776" x2="156" y2="764" stroke="green" />
    <line x1="156" y1="764" x2="150" y2="756" stroke="green" />
    <line x1="150" y1="756" x2="135" y2="770" stroke="green" />
    <line x1="135" y1="770" x2="121" y2="770" stroke="green" />
    <line x1="121" y1="770" x2="136" y2="756" stroke="green" />
    <line x1="136" y1="756" x2="121" y2="756" stroke="green" />
    <line x1="121" y1="756" x2="107" y2="770" stroke="green" />
    <line x1="107" y1="770" x2="93" y2="770" stroke="green" />
    <line x1="93" y1="770" x2="107" y2="756" stroke="green" />
    <line x1="107" y1="756" x2="93" y2="756" stroke="green" />
    <line x1="93" y1="756" x2="78" y2="770" stroke="green" />
    <line x1="78" y1="770" x2="64" y2="770" stroke="green" />
    <line x1="64" y1="770" x2="79" y2="756" stroke="green" />
    <line x1="79" y1="756" x2="65" y2="756" stroke="green" />
    <line x1="65" y1="756" x2="30" y2="791" stroke="green" />
    <line x1="30" y1="791" x2="30" y2="805" stroke="green" />
    <line x1="30" y1="805" x2="54" y2="780" stroke="green" />
    <line x1="54" y1="780" x2="54" y2="794" stroke="green" />
    <line x1="54" y1="794" x2="30" y2="819" stroke="green" />
    <line x1="30" y1="819" x2="30" y2="833" stroke="green" />
    <line x1="30" y1="833" x2="54" y2="808" stroke="green" />
    <line x1="54" y1="808" x2="54" y2="823" stroke="green" />
    <line x1="54" y1="823" x2="30" y2="847" stroke="green" />
    <line x1="30" y1="847" x2="30" y2="862" stroke="green" />
    <line x1="30" y1="862" x2="54" y2="837" stroke="green" />
    <line x1="54" y1="837" x2="54" y2="851" stroke="green" />
    <line x1="54" y1="851" x2="36" y2="870" stroke="green" />
    <line x1="36" y1="870" x2="50" y2="870" stroke="green" />
    <line x1="50" y1="870" x2="64" y2="855" stroke="green" />
    <line x1="64" y1="855" x2="79" y2="855" stroke="green" />
    <line x1="79" y1="855" x2="64" y2="870" stroke="green" />
    <line x1="64" y1="870" x2="78" y2="870" stroke="green" />
    <line x1="78" y1="870" x2="93" y2="855" stroke="green" />
    <line x1="93" y1="855" x2="107" y2="855" stroke="green" />
    <line x1="107" y1="855" x2="92" y2="870" stroke="green" />
    <line x1="92" y1="870" x2="106" y2="870" stroke="green" />
    <line x1="106" y1="870" x2="121" y2="855" stroke="green" />
    <line x1="121" y1="855" x2="135" y2="855" stroke="green" />
    <line x1="135" y1="855" x2="120" y2="870" stroke="green" />
    <line x1="120" y1="870" x2="135" y2="870" stroke="green" />
    <line x1="135" y1="870" x2="156" y2="848" stroke="green" />
    <line x1="156" y1="848" x2="156" y2="863" stroke="green" />
    <line x1="156" y1="863" x2="149" y2="870" stroke="green" />
    <text x="20" y="1047.03614458" font-size="24" style="fill-opacity:1.0; stroke:black; stroke-width:0;">
      Layer Index: 3
    </text>
    <line x1="149" y1="1195" x2="149" y2="1204" stroke="gray" />
    <line x1="149" y1="1204" x2="29" y2="1204" stroke="red" />
    <line x1="29" y1="1204" x2="20" y2="1195" stroke="red" />
    <line x1="20" y1="1195" x2="20" y2="1080" stroke="red" />
    <line x1="20" y1="1080" x2="29" y2="1071" stroke="red" />
    <line x1="29" y1="1071" x2="156" y2="1071" stroke="red" />
    <line x1="156" y1="1071" x2="165" y2="1080" stroke="red" />
    <line x1="165" y1="1080" x2="165" y2="1195" stroke="red" />
    <line x1="165" y1="1195" x2="156" y2="1204" stroke="red" />
    <line x1="156" y1="1204" x2="149" y2="1204" stroke="red" />
    <line x1="149" y1="1204" x2="73" y2="1175" stroke="gray" />
    <line x1="73" y1="1175" x2="59" y2="1175" stroke="gray" />
    <line x1="59" y1="1175" x2="59" y2="1171" stroke="gray" />
    <line x1="59" y1="1171" x2="64" y2="1170" stroke="gray" />
    <line x1="64" y1="1170" x2="134" y2="1170" stroke="orange" />
    <line x1="134" y1="1170" x2="134" y2="1105" stroke="orange" />
    <line x1="134" y1="1105" x2="64" y2="1105" stroke="orange" />
    <line x1="64" y1="1105" x2="64" y2="1170" stroke="orange" />
    <line x1="64" y1="1170" x2="59" y2="1174" stroke="gray" />
    <line x1="59" y1="1174" x2="59" y2="1175" stroke="gray" />
    <line x1="59" y1="1175" x2="60" y2="1175" stroke="gray" />
    <line x1="60" y1="1175" x2="64" y2="1180" stroke="gray" />
    <line x1="64" y1="1180" x2="144" y2="1180" stroke="yellow" />
    <line x1="144" y1="1180" x2="144" y2="1095" stroke="yellow" />
    <line x1="144" y1="1095" x2="54" y2="1095" stroke="yellow" />
    <line x1="54" y1="1095" x2="54" y2="1180" stroke="yellow" />
    <line x1="54" y1="1180" x2="64" y2="1180" stroke="yellow" />
    <line x1="64" y1="1180" x2="64" y2="1194" stroke="gray" />
    <line x1="64" y1="1194" x2="33" y2="1194" stroke="green" />
    <line x1="33" y1="1194" x2="30" y2="1191" stroke="green" />
    <line x1="30" y1="1191" x2="30" y2="1084" stroke="green" />
    <line x1="30" y1="1084" x2="33" y2="1081" stroke="green" />
    <line x1="33" y1="1081" x2="152" y2="1081" stroke="green" />
    <line x1="152" y1="1081" x2="155" y2="1084" stroke="green" />
    <line x1="155" y1="1084" x2="155" y2="1191" stroke="green" />
    <line x1="155" y1="1191" x2="152" y2="1194" stroke="green" />
    <line x1="152" y1="1194" x2="64" y2="1194" stroke="green" />
    <line x1="64" y1="1194" x2="40" y2="1185" stroke="gray" />
    <line x1="40" y1="1185" x2="39" y2="1185" stroke="blue" />
    <line x1="39" y1="1185" x2="44" y2="1176" stroke="blue" />
    <line x1="44" y1="1176" x2="40" y2="1171" stroke="blue" />
    <line x1="40" y1="1171" x2="44" y2="1162" stroke="blue" />
    <line x1="44" y1="1162" x2="40" y2="1157" stroke="blue" />
    <line x1="40" y1="1157" x2="44" y2="1148" stroke="blue" />
    <line x1="44" y1="1148" x2="40" y2="1143" stroke="blue" />
    <line x1="40" y1="1143" x2="44" y2="1133" stroke="blue" />
    <line x1="44" y1="1133" x2="40" y2="1129" stroke="blue" />
    <line x1="40" y1="1129" x2="44" y2="1119" stroke="blue" />
    <line x1="44" y1="1119" x2="40" y2="1115" stroke="blue" />
    <line x1="40" y1="1115" x2="44" y2="1105" stroke="blue" />
    <line x1="44" y1="1105" x2="40" y2="1100" stroke="blue" />
    <line x1="40" y1="1100" x2="44" y2="1091" stroke="blue" />
    <line x1="44" y1="1091" x2="44" y2="1091" stroke="blue" />
    <text x="20" y="1372.04819277" font-size="24" style="fill-opacity:1.0; stroke:black; stroke-width:0;">
      Layer Index: 4
    </text>
    <line x1="44" y1="1416" x2="44" y2="1396" stroke="gray" />
    <line x1="44" y1="1396" x2="156" y2="1396" stroke="red" />
    <line x1="156" y1="1396" x2="165" y2="1405" stroke="red" />
    <line x1="165" y1="1405" x2="165" y2="1520" stroke="red" />
    <line x1="165" y1="1520" x2="156" y2="1529" stroke="red" />
    <line x1="156" y1="1529" x2="29" y2="1529" stroke="red" />
    <line x1="29" y1="1529" x2="20" y2="1520" stroke="red" />
    <line x1="20" y1="1520" x2="20" y2="1405" stroke="red" />
    <line x1="20" y1="1405" x2="29" y2="1396" stroke="red" />
    <line x1="29" y1="1396" x2="44" y2="1396" stroke="red" />
    <line x1="44" y1="1396" x2="64" y2="1430" stroke="gray" />
    <line x1="64" y1="1430" x2="64" y2="1495" stroke="orange" />
    <line x1="64" y1="1495" x2="134" y2="1495" stroke="orange" />
    <line x1="134" y1="1495" x2="134" y2="1430" stroke="orange" />
    <line x1="134" y1="1430" x2="64" y2="1430" stroke="orange" />
    <line x1="64" y1="1430" x2="64" y2="1420" stroke="gray" />
    <line x1="64" y1="1420" x2="54" y2="1420" stroke="yellow" />
    <line x1="54" y1="1420" x2="54" y2="1505" stroke="yellow" />
    <line x1="54" y1="1505" x2="144" y2="1505" stroke="yellow" />
    <line x1="144" y1="1505" x2="144" y2="1420" stroke="yellow" />
    <line x1="144" y1="1420" x2="64" y2="1420" stroke="yellow" />
    <line x1="64" y1="1420" x2="64" y2="1406" stroke="gray" />
    <line x1="64" y1="1406" x2="152" y2="1406" stroke="green" />
    <line x1="152" y1="1406" x2="155" y2="1409" stroke="green" />
    <line x1="155" y1="1409" x2="155" y2="1516" stroke="green" />
    <line x1="155" y1="1516" x2="152" y2="1519" stroke="green" />
    <line x1="152" y1="1519" x2="33" y2="1519" stroke="green" />
    <line x1="33" y1="1519" x2="30" y2="1516" stroke="green" />
    <line x1="30" y1="1516" x2="30" y2="1409" stroke="green" />
    <line x1="30" y1="1409" x2="33" y2="1406" stroke="green" />
    <line x1="33" y1="1406" x2="64" y2="1406" stroke="green" />
    <line x1="64" y1="1406" x2="40" y2="1415" stroke="gray" />
    <line x1="40" y1="1415" x2="39" y2="1416" stroke="blue" />
    <line x1="39" y1="1416" x2="44" y2="1424" stroke="blue" />
    <line x1="44" y1="1424" x2="40" y2="1429" stroke="blue" />
    <line x1="40" y1="1429" x2="44" y2="1438" stroke="blue" />
    <line x1="44" y1="1438" x2="40" y2="1443" stroke="blue" />
    <line x1="40" y1="1443" x2="44" y2="1452" stroke="blue" />
    <line x1="44" y1="1452" x2="40" y2="1457" stroke="blue" />
    <line x1="40" y1="1457" x2="44" y2="1467" stroke="blue" />
    <line x1="44" y1="1467" x2="40" y2="1471" stroke="blue" />
    <line x1="40" y1="1471" x2="44" y2="1481" stroke="blue" />
    <line x1="44" y1="1481" x2="40" y2="1486" stroke="blue" />
    <line x1="40" y1="1486" x2="44" y2="1495" stroke="blue" />
    <line x1="44" y1="1495" x2="40" y2="1500" stroke="blue" />
    <line x1="40" y1="1500" x2="44" y2="1509" stroke="blue" />
    <line x1="44" y1="1509" x2="44" y2="1510" stroke="blue" />
    <text x="20" y="1697.06024096" font-size="24" style="fill-opacity:1.0; stroke:black; stroke-width:0;">
      Layer Index: 5
    </text>
    <line x1="44" y1="1835" x2="44" y2="1854" stroke="gray" />
    <line x1="44" y1="1854" x2="29" y2="1854" stroke="red" />
    <line x1="29" y1="1854" x2="20" y2="1845" stroke="red" />
    <line x1="20" y1="1845" x2="20" y2="1730" stroke="red" />
    <line x1="20" y1="1730" x2="29" y2="1721" stroke="red" />
    <line x1="29" y1="1721" x2="156" y2="1721" stroke="red" />
    <line x1="156" y1="1721" x2="165" y2="1730" stroke="red" />
    <line x1="165" y1="1730" x2="165" y2="1845" stroke="red" />
    <line x1="165" y1="1845" x2="156" y2="1854" stroke="red" />
    <line x1="156" y1="1854" x2="44" y2="1854" stroke="red" />
    <line x1="44" y1="1854" x2="59" y2="1771" stroke="gray" />
    <line x1="59" y1="1771" x2="59" y2="1750" stroke="gray" />
    <line x1="59" y1="1750" x2="63" y2="1750" stroke="gray" />
    <line x1="63" y1="1750" x2="64" y2="1755" stroke="gray" />
    <line x1="64" y1="1755" x2="64" y2="1820" stroke="orange" />
    <line x1="64" y1="1820" x2="134" y2="1820" stroke="orange" />
    <line x1="134" y1="1820" x2="134" y2="1755" stroke="orange" />
    <line x1="134" y1="1755" x2="64" y2="1755" stroke="orange" />
    <line x1="64" y1="1755" x2="64" y2="1745" stroke="gray" />
    <line x1="64" y1="1745" x2="54" y2="1745" stroke="yellow" />
    <line x1="54" y1="1745" x2="54" y2="1830" stroke="yellow" />
    <line x1="54" y1="1830" x2="144" y2="1830" stroke="yellow" />
    <line x1="144" y1="1830" x2="144" y2="1745" stroke="yellow" />
    <line x1="144" y1="1745" x2="64" y2="1745" stroke="yellow" />
    <line x1="64" y1="1745" x2="64" y2="1731" stroke="gray" />
    <line x1="64" y1="1731" x2="152" y2="1731" stroke="green" />
    <line x1="152" y1="1731" x2="155" y2="1734" stroke="green" />
    <line x1="155" y1="1734" x2="155" y2="1841" stroke="green" />
    <line x1="155" y1="1841" x2="152" y2="1844" stroke="green" />
    <line x1="152" y1="1844" x2="33" y2="1844" stroke="green" />
    <line x1="33" y1="1844" x2="30" y2="1841" stroke="green" />
    <line x1="30" y1="1841" x2="30" y2="1734" stroke="green" />
    <line x1="30" y1="1734" x2="33" y2="1731" stroke="green" />
    <line x1="33" y1="1731" x2="64" y2="1731" stroke="green" />
    <line x1="64" y1="1731" x2="44" y2="1741" stroke="gray" />
    <line x1="44" y1="1741" x2="44" y2="1741" stroke="blue" />
    <line x1="44" y1="1741" x2="40" y2="1750" stroke="blue" />
    <line x1="40" y1="1750" x2="44" y2="1755" stroke="blue" />
    <line x1="44" y1="1755" x2="40" y2="1765" stroke="blue" />
    <line x1="40" y1="1765" x2="44" y2="1769" stroke="blue" />
    <line x1="44" y1="1769" x2="40" y2="1779" stroke="blue" />
    <line x1="40" y1="1779" x2="44" y2="1783" stroke="blue" />
    <line x1="44" y1="1783" x2="40" y2="1793" stroke="blue" />
    <line x1="40" y1="1793" x2="44" y2="1798" stroke="blue" />
    <line x1="44" y1="1798" x2="40" y2="1807" stroke="blue" />
    <line x1="40" y1="1807" x2="44" y2="1812" stroke="blue" />
    <line x1="44" y1="1812" x2="40" y2="1821" stroke="blue" />
    <line x1="40" y1="1821" x2="44" y2="1826" stroke="blue" />
    <line x1="44" y1="1826" x2="39" y2="1835" stroke="blue" />
    <line x1="39" y1="1835" x2="40" y2="1835" stroke="blue" />
    <text x="20" y="2022.07228916" font-size="24" style="fill-opacity:1.0; stroke:black; stroke-width:0;">
      Layer Index: 6
    </text>
    <line x1="40" y1="2160" x2="40" y2="2179" stroke="gray" />
    <line x1="40" y1="2179" x2="29" y2="2179" stroke="red" />
    <line x1="29" y1="2179" x2="20" y2="2170" stroke="red" />
    <line x1="20" y1="2170" x2="20" y2="2055" stroke="red" />
    <line x1="20" y1="2055" x2="29" y2="2046" stroke="red" />
    <line x1="29" y1="2046" x2="156" y2="2046" stroke="red" />
    <line x1="156" y1="2046" x2="165" y2="2055" stroke="red" />
    <line x1="165" y1="2055" x2="165" y2="2170" stroke="red" />
    <line x1="165" y1="2170" x2="156" y2="2179" stroke="red" />
    <line x1="156" y1="2179" x2="40" y2="2179" stroke="red" />
    <line x1="40" y1="2179" x2="59" y2="2092" stroke="gray" />
    <line x1="59" y1="2092" x2="59" y2="2075" stroke="gray" />
    <line x1="59" y1="2075" x2="63" y2="2075" stroke="gray" />
    <line x1="63" y1="2075" x2="64" y2="2080" stroke="gray" />
    <line x1="64" y1="2080" x2="64" y2="2145" stroke="orange" />
    <line x1="64" y1="2145" x2="134" y2="2145" stroke="orange" />
    <line x1="134" y1="2145" x2="134" y2="2080" stroke="orange" />
    <line x1="134" y1="2080" x2="64" y2="2080" stroke="orange" />
    <line x1="64" y1="2080" x2="64" y2="2070" stroke="gray" />
    <line x1="64" y1="2070" x2="54" y2="2070" stroke="yellow" />
    <line x1="54" y1="2070" x2="54" y2="2155" stroke="yellow" />
    <line x1="54" y1="2155" x2="144" y2="2155" stroke="yellow" />
    <line x1="144" y1="2155" x2="144" y2="2070" stroke="yellow" />
    <line x1="144" y1="2070" x2="64" y2="2070" stroke="yellow" />
    <line x1="64" y1="2070" x2="64" y2="2056" stroke="gray" />
    <line x1="64" y1="2056" x2="152" y2="2056" stroke="green" />
    <line x1="152" y1="2056" x2="155" y2="2059" stroke="green" />
    <line x1="155" y1="2059" x2="155" y2="2166" stroke="green" />
    <line x1="155" y1="2166" x2="152" y2="2169" stroke="green" />
    <line x1="152" y1="2169" x2="33" y2="2169" stroke="green" />
    <line x1="33" y1="2169" x2="30" y2="2166" stroke="green" />
    <line x1="30" y1="2166" x2="30" y2="2059" stroke="green" />
    <line x1="30" y1="2059" x2="33" y2="2056" stroke="green" />
    <line x1="33" y1="2056" x2="64" y2="2056" stroke="green" />
    <line x1="64" y1="2056" x2="40" y2="2065" stroke="gray" />
    <line x1="40" y1="2065" x2="39" y2="2066" stroke="blue" />
    <line x1="39" y1="2066" x2="44" y2="2074" stroke="blue" />
    <line x1="44" y1="2074" x2="40" y2="2079" stroke="blue" />
    <line x1="40" y1="2079" x2="44" y2="2088" stroke="blue" />
    <line x1="44" y1="2088" x2="40" y2="2093" stroke="blue" />
    <line x1="40" y1="2093" x2="44" y2="2103" stroke="blue" />
    <line x1="44" y1="2103" x2="40" y2="2107" stroke="blue" />
    <line x1="40" y1="2107" x2="44" y2="2117" stroke="blue" />
    <line x1="44" y1="2117" x2="40" y2="2121" stroke="blue" />
    <line x1="40" y1="2121" x2="44" y2="2131" stroke="blue" />
    <line x1="44" y1="2131" x2="40" y2="2136" stroke="blue" />
    <line x1="40" y1="2136" x2="44" y2="2145" stroke="blue" />
    <line x1="44" y1="2145" x2="40" y2="2150" stroke="blue" />
    <line x1="40" y1="2150" x2="44" y2="2159" stroke="blue" />
    <line x1="44" y1="2159" x2="44" y2="2160" stroke="blue" />
    <text x="20" y="2347.08433735" font-size="24" style="fill-opacity:1.0; stroke:black; stroke-width:0;">
      Layer Index: 7
    </text>
    <line x1="44" y1="2485" x2="44" y2="2504" stroke="gray" />
    <line x1="44" y1="2504" x2="29" y2="2504" stroke="red" />
    <line x1="29" y1="2504" x2="20" y2="2495" stroke="red" />
    <line x1="20" y1="2495" x2="20" y2="2380" stroke="red" />
    <line x1="20" y1="2380" x2="29" y2="2371" stroke="red" />
    <line x1="29" y1="2371" x2="156" y2="2371" stroke="red" />
    <line x1="156" y1="2371" x2="165" y2="2380" stroke="red" />
    <line x1="165" y1="2380" x2="165" y2="2495" stroke="red" />
    <line x1="165" y1="2495" x2="156" y2="2504" stroke="red" />
    <line x1="156" y1="2504" x2="44" y2="2504" stroke="red" />
    <line x1="44" y1="2504" x2="59" y2="2421" stroke="gray" />
    <line x1="59" y1="2421" x2="59" y2="2400" stroke="gray" />
    <line x1="59" y1="2400" x2="63" y2="2400" stroke="gray" />
    <line x1="63" y1="2400" x2="64" y2="2405" stroke="gray" />
    <line x1="64" y1="2405" x2="64" y2="2470" stroke="orange" />
    <line x1="64" y1="2470" x2="134" y2="2470" stroke="orange" />
    <line x1="134" y1="2470" x2="134" y2="2405" stroke="orange" />
    <line x1="134" y1="2405" x2="64" y2="2405" stroke="orange" />
    <line x1="64" y1="2405" x2="64" y2="2395" stroke="gray" />
    <line x1="64" y1="2395" x2="54" y2="2395" stroke="yellow" />
    <line x1="54" y1="2395" x2="54" y2="2480" stroke="yellow" />
    <line x1="54" y1="2480" x2="144" y2="2480" stroke="yellow" />
    <line x1="144" y1="2480" x2="144" y2="2395" stroke="yellow" />
    <line x1="144" y1="2395" x2="64" y2="2395" stroke="yellow" />
    <line x1="64" y1="2395" x2="64" y2="2381" stroke="gray" />
    <line x1="64" y1="2381" x2="152" y2="2381" stroke="green" />
    <line x1="152" y1="2381" x2="155" y2="2384" stroke="green" />
    <line x1="155" y1="2384" x2="155" y2="2491" stroke="green" />
    <line x1="155" y1="2491" x2="152" y2="2494" stroke="green" />
    <line x1="152" y1="2494" x2="33" y2="2494" stroke="green" />
    <line x1="33" y1="2494" x2="30" y2="2491" stroke="green" />
    <line x1="30" y1="2491" x2="30" y2="2384" stroke="green" />
    <line x1="30" y1="2384" x2="33" y2="2381" stroke="green" />
    <line x1="33" y1="2381" x2="64" y2="2381" stroke="green" />
    <line x1="64" y1="2381" x2="44" y2="2391" stroke="gray" />
    <line x1="44" y1="2391" x2="44" y2="2391" stroke="blue" />
    <line x1="44" y1="2391" x2="40" y2="2400" stroke="blue" />
    <line x1="40" y1="2400" x2="44" y2="2405" stroke="blue" />
    <line x1="44" y1="2405" x2="40" y2="2415" stroke="blue" />
    <line x1="40" y1="2415" x2="44" y2="2419" stroke="blue" />
    <line x1="44" y1="2419" x2="40" y2="2429" stroke="blue" />
    <line x1="40" y1="2429" x2="44" y2="2434" stroke="blue" />
    <line x1="44" y1="2434" x2="40" y2="2443" stroke="blue" />
    <line x1="40" y1="2443" x2="44" y2="2448" stroke="blue" />
    <line x1="44" y1="2448" x2="40" y2="2457" stroke="blue" />
    <line x1="40" y1="2457" x2="44" y2="2462" stroke="blue" />
    <line x1="44" y1="2462" x2="40" y2="2471" stroke="blue" />
    <line x1="40" y1="2471" x2="44" y2="2476" stroke="blue" />
    <line x1="44" y1="2476" x2="39" y2="2485" stroke="blue" />
    <line x1="39" y1="2485" x2="40" y2="2485" stroke="blue" />
    <text x="20" y="2672.09638554" font-size="24" style="fill-opacity:1.0; stroke:black; stroke-width:0;">
      Layer Index: 8
    </text>
    <line x1="40" y1="2810" x2="40" y2="2829" stroke="gray" />
    <line x1="40" y1="2829" x2="29" y2="2829" stroke="red" />
    <line x1="29" y1="2829" x2="20" y2="2820" stroke="red" />
    <line x1="20" y1="2820" x2="20" y2="2705" stroke="red" />
    <line x1="20" y1="2705" x2="29" y2="2696" stroke="red" />
    <line x1="29" y1="2696" x2="156" y2="2696" stroke="red" />
    <line x1="156" y1="2696" x2="165" y2="2705" stroke="red" />
    <line x1="165" y1="2705" x2="165" y2="2820" stroke="red" />
    <line x1="165" y1="2820" x2="156" y2="2829" stroke="red" />
    <line x1="156" y1="2829" x2="40" y2="2829" stroke="red" />
    <line x1="40" y1="2829" x2="59" y2="2742" stroke="gray" />
    <line x1="59" y1="2742" x2="59" y2="2725" stroke="gray" />
    <line x1="59" y1="2725" x2="63" y2="2725" stroke="gray" />
    <line x1="63" y1="2725" x2="64" y2="2730" stroke="gray" />
    <line x1="64" y1="2730" x2="64" y2="2795" stroke="orange" />
    <line x1="64" y1="2795" x2="134" y2="2795" stroke="orange" />
    <line x1="134" y1="2795" x2="134" y2="2730" stroke="orange" />
    <line x1="134" y1="2730" x2="64" y2="2730" stroke="orange" />
    <line x1="64" y1="2730" x2="51" y2="2706" stroke="gray" />
    <line x1="51" y1="2706" x2="30" y2="2727" stroke="yellow" />
    <line x1="30" y1="2727" x2="30" y2="2713" stroke="yellow" />
    <line x1="30" y1="2713" x2="37" y2="2706" stroke="yellow" />
    <line x1="37" y1="2706" x2="59" y2="2725" stroke="gray" />
    <line x1="59" y1="2725" x2="139" y2="2725" stroke="gray" />
    <line x1="139" y1="2725" x2="139" y2="2793" stroke="gray" />
    <line x1="139" y1="2793" x2="143" y2="2797" stroke="gray" />
    <line x1="143" y1="2797" x2="156" y2="2784" stroke="green" />
    <line x1="156" y1="2784" x2="143" y2="2783" stroke="green" />
    <line x1="143" y1="2783" x2="156" y2="2770" stroke="green" />
    <line x1="156" y1="2770" x2="143" y2="2768" stroke="green" />
    <line x1="143" y1="2768" x2="156" y2="2756" stroke="green" />
    <line x1="156" y1="2756" x2="143" y2="2754" stroke="green" />
    <line x1="143" y1="2754" x2="156" y2="2742" stroke="green" />
    <line x1="156" y1="2742" x2="143" y2="2740" stroke="green" />
    <line x1="143" y1="2740" x2="156" y2="2728" stroke="green" />
    <line x1="156" y1="2728" x2="143" y2="2726" stroke="green" />
    <line x1="143" y1="2726" x2="156" y2="2714" stroke="green" />
    <line x1="156" y1="2714" x2="150" y2="2706" stroke="green" />
    <line x1="150" y1="2706" x2="135" y2="2720" stroke="green" />
    <line x1="135" y1="2720" x2="121" y2="2720" stroke="green" />
    <line x1="121" y1="2720" x2="136" y2="2706" stroke="green" />
    <line x1="136" y1="2706" x2="121" y2="2706" stroke="green" />
    <line x1="121" y1="2706" x2="107" y2="2720" stroke="green" />
    <line x1="107" y1="2720" x2="93" y2="2720" stroke="green" />
    <line x1="93" y1="2720" x2="107" y2="2706" stroke="green" />
    <line x1="107" y1="2706" x2="93" y2="2706" stroke="green" />
    <line x1="93" y1="2706" x2="78" y2="2720" stroke="green" />
    <line x1="78" y1="2720" x2="64" y2="2720" stroke="green" />
    <line x1="64" y1="2720" x2="79" y2="2706" stroke="green" />
    <line x1="79" y1="2706" x2="65" y2="2706" stroke="green" />
    <line x1="65" y1="2706" x2="30" y2="2741" stroke="green" />
    <line x1="30" y1="2741" x2="30" y2="2755" stroke="green" />
    <line x1="30" y1="2755" x2="54" y2="2730" stroke="green" />
    <line x1="54" y1="2730" x2="54" y2="2744" stroke="green" />
    <line x1="54" y1="2744" x2="30" y2="2769" stroke="green" />
    <line x1="30" y1="2769" x2="30" y2="2783" stroke="green" />
    <line x1="30" y1="2783" x2="54" y2="2758" stroke="green" />
    <line x1="54" y1="2758" x2="54" y2="2773" stroke="green" />
    <line x1="54" y1="2773" x2="30" y2="2797" stroke="green" />
    <line x1="30" y1="2797" x2="30" y2="2812" stroke="green" />
    <line x1="30" y1="2812" x2="54" y2="2787" stroke="green" />
    <line x1="54" y1="2787" x2="54" y2="2801" stroke="green" />
    <line x1="54" y1="2801" x2="36" y2="2820" stroke="green" />
    <line x1="36" y1="2820" x2="50" y2="2820" stroke="green" />
    <line x1="50" y1="2820" x2="64" y2="2805" stroke="green" />
    <line x1="64" y1="2805" x2="79" y2="2805" stroke="green" />
    <line x1="79" y1="2805" x2="64" y2="2820" stroke="green" />
    <line x1="64" y1="2820" x2="78" y2="2820" stroke="green" />
    <line x1="78" y1="2820" x2="93" y2="2805" stroke="green" />
    <line x1="93" y1="2805" x2="107" y2="2805" stroke="green" />
    <line x1="107" y1="2805" x2="92" y2="2820" stroke="green" />
    <line x1="92" y1="2820" x2="106" y2="2820" stroke="green" />
    <line x1="106" y1="2820" x2="121" y2="2805" stroke="green" />
    <line x1="121" y1="2805" x2="135" y2="2805" stroke="green" />
    <line x1="135" y1="2805" x2="120" y2="2820" stroke="green" />
    <line x1="120" y1="2820" x2="135" y2="2820" stroke="green" />
    <line x1="135" y1="2820" x2="156" y2="2798" stroke="green" />
    <line x1="156" y1="2798" x2="156" y2="2813" stroke="green" />
    <line x1="156" y1="2813" x2="149" y2="2820" stroke="green" />
    <text x="20" y="2997.10843373" font-size="24" style="fill-opacity:1.0; stroke:black; stroke-width:0;">
      Layer Index: 9
    </text>
    <line x1="149" y1="3145" x2="149" y2="3154" stroke="gray" />
    <line x1="149" y1="3154" x2="29" y2="3154" stroke="red" />
    <line x1="29" y1="3154" x2="20" y2="3145" stroke="red" />
    <line x1="20" y1="3145" x2="20" y2="3030" stroke="red" />
    <line x1="20" y1="3030" x2="29" y2="3021" stroke="red" />
    <line x1="29" y1="3021" x2="156" y2="3021" stroke="red" />
    <line x1="156" y1="3021" x2="165" y2="3030" stroke="red" />
    <line x1="165" y1="3030" x2="165" y2="3145" stroke="red" />
    <line x1="165" y1="3145" x2="156" y2="3154" stroke="red" />
    <line x1="156" y1="3154" x2="149" y2="3154" stroke="red" />
    <line x1="149" y1="3154" x2="73" y2="3125" stroke="gray" />
    <line x1="73" y1="3125" x2="59" y2="3125" stroke="gray" />
    <line x1="59" y1="3125" x2="59" y2="3121" stroke="gray" />
    <line x1="59" y1="3121" x2="64" y2="3120" stroke="gray" />
    <line x1="64" y1="3120" x2="134" y2="3120" stroke="orange" />
    <line x1="134" y1="3120" x2="134" y2="3055" stroke="orange" />
    <line x1="134" y1="3055" x2="64" y2="3055" stroke="orange" />
    <line x1="64" y1="3055" x2="64" y2="3120" stroke="orange" />
    <line x1="64" y1="3120" x2="59" y2="3124" stroke="gray" />
    <line x1="59" y1="3124" x2="59" y2="3125" stroke="gray" />
    <line x1="59" y1="3125" x2="60" y2="3125" stroke="gray" />
    <line x1="60" y1="3125" x2="64" y2="3130" stroke="gray" />
    <line x1="64" y1="3130" x2="144" y2="3130" stroke="yellow" />
    <line x1="144" y1="3130" x2="144" y2="3045" stroke="yellow" />
    <line x1="144" y1="3045" x2="54" y2="3045" stroke="yellow" />
    <line x1="54" y1="3045" x2="54" y2="3130" stroke="yellow" />
    <line x1="54" y1="3130" x2="64" y2="3130" stroke="yellow" />
    <line x1="64" y1="3130" x2="64" y2="3144" stroke="gray" />
    <line x1="64" y1="3144" x2="33" y2="3144" stroke="green" />
    <line x1="33" y1="3144" x2="30" y2="3141" stroke="green" />
    <line x1="30" y1="3141" x2="30" y2="3034" stroke="green" />
    <line x1="30" y1="3034" x2="33" y2="3031" stroke="green" />
    <line x1="33" y1="3031" x2="152" y2="3031" stroke="green" />
    <line x1="152" y1="3031" x2="155" y2="3034" stroke="green" />
    <line x1="155" y1="3034" x2="155" y2="3141" stroke="green" />
    <line x1="155" y1="3141" x2="152" y2="3144" stroke="green" />
    <line x1="152" y1="3144" x2="64" y2="3144" stroke="green" />
    <line x1="64" y1="3144" x2="40" y2="3135" stroke="gray" />
    <line x1="40" y1="3135" x2="39" y2="3135" stroke="blue" />
    <line x1="39" y1="3135" x2="44" y2="3126" stroke="blue" />
    <line x1="44" y1="3126" x2="40" y2="3121" stroke="blue" />
    <line x1="40" y1="3121" x2="44" y2="3112" stroke="blue" />
    <line x1="44" y1="3112" x2="40" y2="3107" stroke="blue" />
    <line x1="40" y1="3107" x2="44" y2="3098" stroke="blue" />
    <line x1="44" y1="3098" x2="40" y2="3093" stroke="blue" />
    <line x1="40" y1="3093" x2="44" y2="3084" stroke="blue" />
    <line x1="44" y1="3084" x2="40" y2="3079" stroke="blue" />
    <line x1="40" y1="3079" x2="44" y2="3069" stroke="blue" />
    <line x1="44" y1="3069" x2="40" y2="3065" stroke="blue" />
    <line x1="40" y1="3065" x2="44" y2="3055" stroke="blue" />
    <line x1="44" y1="3055" x2="40" y2="3050" stroke="blue" />
    <line x1="40" y1="3050" x2="44" y2="3041" stroke="blue" />
    <line x1="44" y1="3041" x2="44" y2="3041" stroke="blue" />
  </g>
</svg>
